{"title":"Wall of Silence x264 RB58.mp4","uid":10553585,"size":826893083,"categoryP":"video","categoryS":"tv_shows","magnet":"?xt=urn:btih:d2d9d00fd282f5d87d7f9ce6d5a4c58d338fa4bb&amp;dn=Wall+of+Silence+x264+RB58.mp4&amp;tr=udp%3A%2F%2Ftracker.openbittorrent.com%3A80&amp;tr=udp%3A%2F%2Fopen.demonii.com%3A1337&amp;tr=udp%3A%2F%2Ftracker.coppersurfer.tk%3A6969&amp;tr=udp%3A%2F%2Fexodus.desync.com%3A6969","seeders":2,"leechers":0,"uploader":"RedBaron58","files":1,"time":1405364494,"description":"Wall of Silence - TV Movie x264 mp4\n &lt;a href=&quot;\nhttp://www.imdb.com/title/tt0362299/&quot; rel=&quot;nofollow&quot; target=&quot;_NEW&quot;&gt;\nhttp://www.imdb.com/title/tt0362299/&lt;/a&gt;\n\n\n\nThank you for your kind comments and thumbs ups on my other torrents, your feedback is welcome.\n\n\nAbout the Movie:\n***Based on a true story***\n\nOn 7th August 1997 while walking home drunk with his sisters boyfriend,17 year old Jamie Robe makes an \noff-the-cuff remark to a nearby boy who is kissing a girl. \nAs a result of this exchange,Jamie is brutally attacked by a gang of at least 6 youths on South Londons \ntough Ospery estate. \nStaring James Nesbitt and Philip Davis.\n\nI hope you enjoy.\n\n\nTechnical:\n\nGeneral\nComplete name                            : G:Wall of Silence x264 RB58.mp4\nFormat                                   : MPEG-4\nFormat profile                           : Base Media\nCodec ID                                 : isom\nFile size                                : 789 MiB\nDuration                                 : 1h 37mn\nOverall bit rate                         : 1 136 Kbps\nWriting application                      : Lavf54.63.104\n\nVideo\nID                                       : 1\nFormat                                   : AVC\nFormat/Info                              : Advanced Video Codec\nFormat profile                           : &lt;a class=&quot;__cf_email__&quot; href=&quot;/cdn-cgi/l/email-protection&quot; data-cfemail=&quot;a7eac6cec9e7eb948997&quot;&gt;[email&amp;#160;protected]&lt;/a&gt;&lt;script cf-hash='f9e31' type=&quot;text/javascript&quot;&gt;\n/* &lt;![CDATA[ */!function(){try{var t=&quot;currentScript&quot;in document?document.currentScript:function(){for(var t=document.getElementsByTagName(&quot;script&quot;),e=t.length;e--;)if(t[e].getAttribute(&quot;cf-hash&quot;))return t[e]}();if(t&amp;&amp;t.previousSibling){var e,r,n,i,c=t.previousSibling,a=c.getAttribute(&quot;data-cfemail&quot;);if(a){for(e=&quot;&quot;,r=parseInt(a.substr(0,2),16),n=2;a.length-n;n+=2)i=parseInt(a.substr(n,2),16)^r,e+=String.fromCharCode(i);e=document.createTextNode(e),c.parentNode.replaceChild(e,c)}}}catch(u){}}();/* ]]&gt; */&lt;/script&gt;\nFormat settings, CABAC                   : Yes\nFormat settings, ReFrames                : 4 frames\nCodec ID                                 : avc1\nCodec ID/Info                            : Advanced Video Coding\nDuration                                 : 1h 37mn\nBit rate                                 : 1 000 Kbps\nWidth                                    : 716 pixels\nHeight                                   : 576 pixels\nDisplay aspect ratio                     : 5:4\nOriginal display aspect ratio            : 16:9\nFrame rate mode                          : Constant\nFrame rate                               : 25.000 fps\nColor space                              : YUV\nChroma subsampling                       : 4:2:0\nBit depth                                : 8 bits\nScan type                                : Progressive\nBits/(Pixel*Frame)                       : 0.097\nStream size                              : 694 MiB (88%)\nWriting library                          : x264 core 120\nEncoding settings                        : cabac=1 / ref=1 / deblock=1:0:0\nColor primaries                          : BT.601 NTSC\nTransfer characteristics                 : BT.709\nMatrix coefficients                      : BT.601\n\nAudio\nID                                       : 2\nFormat                                   : AAC\nFormat/Info                              : Advanced Audio Codec\nFormat profile                           : LC\nCodec ID                                 : 40\nDuration                                 : 1h 37mn\nBit rate mode                            : Constant\nBit rate                                 : 128 Kbps\nChannel(s)                               : 2 channels\nChannel positions                        : Front: L R\nSampling rate                            : 48.0 KHz\nCompression mode                         : Lossy\nStream size                              : 88.9 MiB (11%)\nLanguage                                 : English","torrent":{"xt":"urn:btih:d2d9d00fd282f5d87d7f9ce6d5a4c58d338fa4bb","amp;dn":"Wall+of+Silence+x264+RB58.mp4","amp;tr":["udp%3A%2F%2Ftracker.openbittorrent.com%3A80","udp%3A%2F%2Fopen.demonii.com%3A1337","udp%3A%2F%2Ftracker.coppersurfer.tk%3A6969","udp%3A%2F%2Fexodus.desync.com%3A6969"],"infoHash":"d2d9d00fd282f5d87d7f9ce6d5a4c58d338fa4bb","infoHashBuffer":{"type":"Buffer","data":[210,217,208,15,210,130,245,216,125,127,156,230,213,164,197,141,51,143,164,187]},"announce":[],"urlList":[]}}